<?xml version="1.0" standalone="no"?>
<svg xmlns:xlink="http://www.w3.org/1999/xlink" xmlns="http://www.w3.org/2000/svg" class="vtree" width="960" height="800"><style>
.vtree-node text { font: 14px sans-serif; }
.vtree-link { fill: none; stroke: #888; stroke-width: 2px; }
.vtree-table { stroke-width: 2px; stroke: steelblue; }
path.vtree-table { fill: white; }
g.vtree-node rect { fill: white; stroke: black; stroke-width: 1px; }
g.vtree-node rect.number-text { fill: #d8f0ed; }
g.vtree-node rect.string-text { fill: #e7f0db; }
g.vtree-node rect.boolean-text { fill: #e1d8f0; }
g.vtree-node rect.null-text { fill: #888; }
</style><g class="vtree-root" transform="translate(-109.6022700915627,8.582801621679309)scale(0.8489577959028742)"><g class="vtree-node" transform="translate(480,256)"><g class="vtree-node" transform=""><path class="vtree-link" d="M-113,32C-113,32 161,32 161,32"/><g class="vtree-node" transform="translate(-183,0)"><path class="vtree-link" d="M70,68C70,145 203,145 203,222"/><path class="vtree-link" d="M70,68C70,133 -59,133 -59,198"/><g class="vtree-node" transform="translate(41,166)"><path class="vtree-link" d="M33,24C33,24 100,24 100,24"/><path class="vtree-link" d="M-34,24C-34,24 33,24 33,24"/><path class="vtree-link" d="M-100,24C-100,24 -34,24 -34,24"/><g class="vtree-node" transform="translate(-128,0)"><g transform="translate(20,20)"><rect class="number-text" x="0" y="0" width="16" height="24"/><text x="4" y="20">1</text></g><g><text x="28" y="16" text-anchor="middle">array[0]</text></g></g><g class="vtree-node" transform="translate(-62,0)"><g transform="translate(20,20)"><rect class="number-text" x="0" y="0" width="16" height="24"/><text x="4" y="20">2</text></g><g><text x="28" y="16" text-anchor="middle">array[1]</text></g></g><g class="vtree-node" transform="translate(5,0)"><path class="vtree-link" d="M28,24C28,67 11,67 11,110"/><g class="vtree-node" transform="translate(28,78)"><path class="vtree-link" d="M-17,32C-17,32 18,32 18,32"/><g class="vtree-node" transform="translate(-29,0)"><g transform="translate(4,20)"><rect class="number-text" x="0" y="0" width="16" height="24"/><text x="4" y="20">3</text></g><g><text x="12" y="16" text-anchor="middle">[0]</text></g></g><g class="vtree-node" transform="translate(5,0)"><g transform="translate(4,20)"><rect class="number-text" x="0" y="0" width="17" height="24"/><text x="4" y="20">4</text></g><g><text x="12" y="16" text-anchor="middle">[1]</text></g></g></g><g transform="translate(24,20)"><circle cx="4" cy="4" r="4"/></g><g><text x="28" y="16" text-anchor="middle">array[2]</text></g></g><g class="vtree-node" transform="translate(72,0)"><g transform="translate(20,20)"><rect class="number-text" x="0" y="0" width="16" height="24"/><text x="4" y="20">5</text></g><g><text x="28" y="16" text-anchor="middle">array[3]</text></g></g></g><g class="vtree-node" transform="translate(179,166)"><g transform="translate(8,20)"><g transform="translate(0,0)"><rect class="string-text" x="0" y="0" width="16" height="24"/><text x="4" y="20">a</text></g><g transform="translate(16,0)"><rect class="string-text" x="0" y="0" width="16" height="24"/><text x="4" y="20">b</text></g><g transform="translate(0,24)"><rect class="string-text" x="0" y="0" width="16" height="24"/><text x="4" y="20">c</text></g><g transform="translate(16,24)"><rect class="string-text" x="0" y="0" width="16" height="24"/><text x="4" y="20">d</text></g><g transform="translate(0,48)"><rect class="string-text" x="0" y="0" width="16" height="24"/><text x="4" y="20">e</text></g><g transform="translate(16,48)"><rect class="string-text" x="0" y="0" width="16" height="24"/><text x="4" y="20">f</text></g></g><g><text x="24" y="16" text-anchor="middle">object</text></g></g><g transform="translate(0,20)"><g transform="translate(0,0)"><rect class="string-text" x="0" y="0" width="59" height="24"/><text x="4" y="20">boolean</text></g><g transform="translate(59,0)"><rect class="boolean-text" x="0" y="0" width="81" height="24"/><text x="4" y="20">true</text></g><g transform="translate(0,24)"><rect class="string-text" x="0" y="0" width="59" height="24"/><text x="4" y="20">null</text></g><g transform="translate(59,24)"><rect class="null-text" x="0" y="0" width="81" height="24"/><text x="4" y="4"/></g><g transform="translate(0,48)"><rect class="string-text" x="0" y="0" width="59" height="24"/><text x="4" y="20">number</text></g><g transform="translate(59,48)"><rect class="number-text" x="0" y="0" width="81" height="24"/><text x="4" y="20">123</text></g><g transform="translate(0,72)"><rect class="string-text" x="0" y="0" width="59" height="24"/><text x="4" y="20">string</text></g><g transform="translate(59,72)"><rect class="string-text" x="0" y="0" width="81" height="24"/><text x="4" y="20">Hello World</text></g></g><g><text x="70" y="16" text-anchor="middle">[0]</text></g></g><g class="vtree-node" transform="translate(149,0)"><path class="vtree-link" d="M12,32C12,79 108,79 108,126"/><path class="vtree-link" d="M12,32C12,79 -50,79 -50,126"/><path class="vtree-link" d="M12,32C12,71 -84,71 -84,110"/><g class="vtree-node" transform="translate(-96,94)"><g transform="translate(0,4)"><g transform="translate(0,0)"><rect class="string-text" x="0" y="0" width="16" height="24"/><text x="4" y="20">ʕ</text></g><g transform="translate(16,0)"><rect class="string-text" x="0" y="0" width="8" height="24"/><text x="4" y="4"/></g></g><g><text x="12" y="0" text-anchor="middle">  </text></g></g><g class="vtree-node" transform="translate(12,94)"><path class="vtree-link" d="M0,24C0,24 62,24 62,24"/><path class="vtree-link" d="M-62,24C-62,24 0,24 0,24"/><g class="vtree-node" transform="translate(-74,0)"><g transform="translate(2,20)"><rect class="string-text" x="0" y="0" width="20" height="24"/><text x="4" y="20">◕</text></g><g><text x="12" y="16" text-anchor="middle"> [0]</text></g></g><g class="vtree-node" transform="translate(-12,0)"><path class="vtree-link" d="M12,24C12,67 12,67 12,110"/><g class="vtree-node" transform="translate(12,78)"><g class="vtree-node" transform="translate(-40,0)"><g transform="translate(0,20)"><g transform="translate(0,0)"><rect class="string-text" x="0" y="0" width="42" height="24"/><text x="4" y="20">hello! </text></g><g transform="translate(42,0)"><rect class="string-text" x="0" y="0" width="38" height="24"/><text x="4" y="20">&lt;ﾆフ</text></g></g><g><text x="40" y="16" text-anchor="middle">[0]</text></g></g></g><g transform="translate(8,20)"><circle cx="4" cy="4" r="4"/></g><g><text x="12" y="16" text-anchor="middle"> [1]</text></g></g><g class="vtree-node" transform="translate(50,0)"><g transform="translate(2,20)"><rect class="string-text" x="0" y="0" width="20" height="24"/><text x="4" y="20">◕</text></g><g><text x="12" y="16" text-anchor="middle"> [2]</text></g></g></g><g class="vtree-node" transform="translate(96,94)"><g transform="translate(0,20)"><g transform="translate(0,0)"><rect class="string-text" x="0" y="0" width="8" height="24"/><text x="4" y="4"/></g><g transform="translate(8,0)"><rect class="string-text" x="0" y="0" width="16" height="24"/><text x="4" y="20">ʔ</text></g></g><g><text x="12" y="16" text-anchor="middle">_</text></g></g><g transform="translate(0,20)"><g transform="translate(0,0)"><rect class="string-text" x="0" y="0" width="12" height="24"/><text x="4" y="20">|</text></g><g transform="translate(12,0)"><rect class="string-text" x="0" y="0" width="12" height="24"/><text x="4" y="20">|</text></g></g><g><text x="12" y="16" text-anchor="middle">[1]</text></g></g></g></g></g></svg>